<svg width="16" height="16" viewBox="0 0 16 16" fill="none" xmlns="http://www.w3.org/2000/svg"><path fill-rule="evenodd" clip-rule="evenodd" d="M6.69 2.688v-.362C6.69 1.588 7.28 1 8 1c.72 0 1.31.588 1.31 1.326v.365c1.89.601 3.28 2.475 3.28 4.693v2.315l.79 1.474c.08.148.12.316.12.487 0 .17-.04.338-.12.486-.08.147-.2.27-.34.355a.854.854 0 0 1-.45.13H10c-.04.98-.92 1.766-2 1.766s-1.96-.785-2-1.766H3.41a.86.86 0 0 1-.45-.129.918.918 0 0 1-.33-.353.914.914 0 0 1-.13-.483c0-.17.04-.337.12-.485l.78-1.497v-2.3c0-2.222 1.39-4.097 3.29-4.696zm0 9.943c.04.553.59 1.035 1.31 1.035.72 0 1.27-.482 1.31-1.035H6.69zM8.62 2.534v-.208A.607.607 0 0 0 8 1.731c-.35 0-.62.272-.62.595v.206a4.38 4.38 0 0 1 1.24.002zm-4.53 4.85c0-2.3 1.75-4.165 3.91-4.165 2.15 0 3.9 1.865 3.9 4.166v2.508l.88 1.643c.02.037.03.08.03.122a.255.255 0 0 1-.11.21.192.192 0 0 1-.11.033H3.41a.22.22 0 0 1-.11-.033.252.252 0 0 1-.11-.209.47.47 0 0 1 .02-.121l.88-1.663V7.384z" fill="#333"/></svg>