<svg width="16" height="16" viewBox="0 0 16 16" fill="none" xmlns="http://www.w3.org/2000/svg"><path fill-rule="evenodd" clip-rule="evenodd" d="M5.85 3.5a.9.9 0 1 1 1.8 0 .9.9 0 0 1-1.8 0zm.9-1.5a1.5 1.5 0 0 0-1.198 2.402H3c-.557 0-1 .45-1 1V6c0 .551.443 1 1 1v5.5c0 .829.675 1.5 1.5 1.5h7c.825 0 1.5-.671 1.5-1.5V7c.557 0 1-.449 1-1v-.598c0-.55-.443-1-1-1h-2.552A1.5 1.5 0 0 0 8 2.67 1.499 1.499 0 0 0 6.75 2zM8 4.33c.017.024.034.049.052.072h-.104c.018-.023.035-.048.052-.073zM2.6 5.401c0-.221.177-.4.4-.4h10c.223 0 .4.179.4.4V6c0 .222-.177.4-.4.4H3a.398.398 0 0 1-.4-.4v-.598zM9.25 2.6a.9.9 0 1 0 0 1.8.9.9 0 0 0 0-1.8zM3.6 12.5V7.001h8.8V12.5c0 .497-.405.9-.9.9h-7a.902.902 0 0 1-.9-.9z" fill="#333"/><path fill-rule="evenodd" clip-rule="evenodd" d="M8.3 6.5h-.6v3.4H3v.6h4.7v3.4h.6v-3.4H13v-.6H8.3V6.5z" fill="#333"/></svg>